<svg id="&#x421;&#x43B;&#x43E;&#x439;_1" height="512" viewBox="0 0 128 128" width="512" xmlns="http://www.w3.org/2000/svg"><path d="m128 78.51a4.35 4.35 0 0 0 -2.15-3.1c-3.12-1.93-10.28-3.54-17.19-.09-2.88 1.44-5.78 3.17-8.48 4.83-.06-.12-.13-.24-.2-.36-.91-1.34-2.62-2-5.08-2-3.06 0-8.72 3-16.37 7.29a73.45 73.45 0 0 1 -7.15 3.72c-1.6-.19-3.16-.34-4.85-.5-2-.19-4.17-.4-6.85-.72-.33-2.58-.98-7.91-2.14-14.58-.58-3 1.3-6.35 3.92-9.37a18 18 0 0 0 9.3 5.62 21 21 0 0 0 5.13.63 24.34 24.34 0 0 0 13.6-4.27c7.55-5.16 13.78-16.81 18.78-26.17 3-5.57 6-11.33 7.94-12.56s1.63-2.85 1.16-3.61c-1.3-2.1-8-2.33-20-.71-5.46.75-19 3-26.67 7.48-14.7 8.66-18.22 17.55-11.9 29.74l.28.48a29.2 29.2 0 0 0 -3.21 4.16l-.18-.85a187 187 0 0 0 -5.77-20.72c4.5-3.3 5.75-9.4 3.29-16.76-1.21-3.77-8.31-13.09-9.71-14.94-9-11.78-10.38-11.4-11.59-11.07a2.34 2.34 0 0 0 -1.54 3 37.24 37.24 0 0 1 .09 7.18c-.24 6.12-.56 14.5 2 22.38 2.45 7.41 6.71 10.13 9 11.09a10 10 0 0 0 3.76.78 7.19 7.19 0 0 0 .94-.06 183.39 183.39 0 0 1 5.55 20c2.08 9.45 3.21 17.93 3.71 22.2-.69-.35-1.51-.82-2.36-1.31a80.5 80.5 0 0 0 -28.62-10.34c-15.71-2.71-22.94.36-23.24.49a2 2 0 0 0 1.6 3.67c.07 0 6.43-2.72 21-.22a76.68 76.68 0 0 1 27.39 9.9c2.3 1.29 3.81 2.16 5.27 2.36 4 .54 7 .82 9.64 1.07a88.25 88.25 0 0 1 12.82 1.91c7.48 1.69 12.39 4.71 13.83 8.48.74 2 .73 4.14-.82 5.7a4.78 4.78 0 0 1 -1.52 1c-2.92 1.19-10-1.21-14.07-2.38a46.39 46.39 0 0 0 -8.55-2 115.84 115.84 0 0 0 -25.68 1.9 2 2 0 0 0 .8 3.92 114.13 114.13 0 0 1 24.68-1.8 45.07 45.07 0 0 1 7.64 1.82c3.2.92 6.44 1.84 9.39 2.37-10.15 6.15-19.52 10.81-23.91 10.81-8.66 0-44.66-17.46-57.8-24.18a2 2 0 0 0 -1.82 3.56c2 1 48.23 24.62 59.62 24.62 5.82 0 18.55-6.66 31.25-14.76 1.34-.89 2-1.3 3-1.92 15.04-9.89 29.33-21.26 31.04-25.32a7.53 7.53 0 0 0 .72-3.18 6.35 6.35 0 0 0 1.28-4.31zm-55.21-45c9.34-5.5 29.54-8 38.06-8h1.1c-2.09 2.54-4.34 6.74-7.16 12-4.79 9.04-10.79 20.21-17.56 24.82a19.54 19.54 0 0 1 -15.49 3.06 14.12 14.12 0 0 1 -7.48-4.62 49.87 49.87 0 0 1 6.94-5.4 2 2 0 0 0 -2.14-3.37 55.29 55.29 0 0 0 -7 5.35c-4.18-8.35-3.69-15.35 10.68-23.84zm-29.73 6.49c-1.69-.7-4.81-2.75-6.76-8.65-2.38-7.18-2.07-15.15-1.84-21 0-1.44.11-2.75.12-3.93 4.81 5.43 13.69 17.42 14.84 20.86 1.7 5.1 1.35 9.07-1 11.48-1-2.67-1.68-4.17-1.75-4.33a2 2 0 0 0 -3.65 1.64s.7 1.57 1.74 4.35a6.5 6.5 0 0 1 -1.7-.42zm67.34 38.9c5.41-2.71 11-1.49 13.3-.09a1 1 0 0 1 .18.14c-2.3-.81-5.83-.32-10.58 1.51a44.7 44.7 0 0 0 -9.74 5.22c-2.85 1.87-6.74 4.41-13.84 8.26a27.61 27.61 0 0 0 -3.48-1.68c2.89-1.34 6.33-3 7.78-3.75 1.77-1 3.86-2.26 6.06-3.63 3.2-1.98 6.82-4.23 10.32-5.98zm-30 9.66c4.6-2.56 12.2-6.56 14.45-6.78a4.2 4.2 0 0 1 2.29.22c-1.84 1.14-3.58 2.2-5 3-2.17 1.18-9.38 4.5-11.53 5.48l-.78-.19-1.83-.4c.75-.39 1.53-.83 2.42-1.33zm41.93-4.11c-1.3 3-12.5 12-25.2 20.65a10.32 10.32 0 0 0 -.66-3.86 12.79 12.79 0 0 0 -3.23-4.68c6.22-3.43 9.81-5.77 12.49-7.53a41.14 41.14 0 0 1 9-4.84c5.62-2.16 7.75-1.65 8-1.42a3 3 0 0 1 -.38 1.68z"/></svg>