<svg id="Machine_Learning" enable-background="new 0 0 128 128" height="512" viewBox="0 0 128 128" width="512" xmlns="http://www.w3.org/2000/svg"><g><path id="_x33_" d="m22.84 46.937c-1.052-.34-1.621-1.474-1.308-2.523.341-1.049 1.479-1.616 2.531-1.275 3.329 1.049 6.229 3.09 8.363 5.755 1.678 2.098 2.902 4.592 3.471 7.342.739-.113 1.479-.17 2.219-.17 4.295 0 8.22 1.758 11.037 4.564 2.816 2.806 4.551 6.69 4.551 10.999 0 1.105-.881 1.984-1.991 1.984-1.109 0-2.019-.879-2.019-1.984 0-3.203-1.28-6.095-3.385-8.165-2.105-2.098-4.978-3.401-8.192-3.401-1.992 0-3.84.51-5.461 1.361-1.679.907-3.101 2.211-4.182 3.771-.597.936-1.849 1.162-2.759.566-.939-.623-1.167-1.871-.569-2.778 1.422-2.126 3.356-3.855 5.632-5.075.398-.227.825-.425 1.251-.595-.426-2.211-1.365-4.252-2.73-5.924-1.652-2.071-3.899-3.63-6.459-4.452zm20.85 55.987c-.91.596-2.162.341-2.759-.595-.569-.936-.313-2.154.625-2.75 1.309-.85 2.76-1.502 4.324-1.928 1.507-.425 3.101-.68 4.75-.68 4.267 0 8.107 1.53 10.923 3.969 2.901 2.522 4.665 6.009 4.665 9.893 0 1.105-.881 1.984-1.991 1.984-1.109 0-2.02-.879-2.02-1.984 0-2.693-1.251-5.103-3.271-6.889-2.105-1.813-5.035-2.947-8.306-2.947-1.28 0-2.502.17-3.669.481-1.194.34-2.275.851-3.271 1.446zm-25.515-32.175c1.081-.113 2.077.681 2.19 1.786.085 1.105-.711 2.07-1.82 2.184-1.536.142-3.015.142-4.438-.028-1.451-.17-2.845-.512-4.181-1.021-1.024-.369-1.564-1.531-1.166-2.552.369-1.021 1.535-1.559 2.56-1.162.996.369 2.105.624 3.271.766 1.138.14 2.333.14 3.584.027zm23.723-61.345c.285-1.049 1.366-1.701 2.418-1.445 1.081.255 1.735 1.332 1.479 2.409-.142.567-.256 1.446-.17 2.495.057.765.227 1.616.569 2.409.427 1.021-.085 2.183-1.109 2.608-.996.397-2.19-.085-2.588-1.106-.512-1.247-.768-2.466-.853-3.6-.115-1.502.056-2.834.254-3.77zm6.116 29.085c-1.109 0-2.02-.907-2.02-2.013 0-1.105.91-2.012 2.02-2.012 2.304 0 4.409.935 5.917 2.466 1.507 1.503 2.446 3.601 2.446 5.896 0 2.296-.939 4.394-2.446 5.897-1.508 1.53-3.613 2.466-5.917 2.466-1.109 0-2.02-.907-2.02-2.013s.91-1.984 2.02-1.984c1.195 0 2.276-.51 3.072-1.276.797-.793 1.281-1.871 1.281-3.09 0-1.19-.484-2.296-1.281-3.061-.796-.794-1.877-1.276-3.072-1.276zm-31.203 56.612c-.541.964-1.764 1.304-2.731.766-.938-.539-1.28-1.759-.74-2.723.825-1.417 1.849-2.749 3.015-3.883 1.195-1.135 2.532-2.098 4.011-2.863.967-.482 2.19-.113 2.703.879.483.964.114 2.183-.882 2.692-1.109.567-2.133 1.304-3.044 2.183-.911.878-1.707 1.87-2.332 2.949zm29.582-8.505c.939-.538 2.163-.227 2.731.737.54.936.227 2.183-.74 2.721-2.446 1.418-5.234 1.701-7.765 1.021-2.503-.68-4.779-2.296-6.201-4.733-1.422-2.438-1.707-5.216-1.024-7.738.683-2.523 2.333-4.792 4.779-6.181.939-.567 2.162-.228 2.73.736.541.936.199 2.155-.739 2.723-1.479.851-2.475 2.211-2.901 3.741-.398 1.531-.228 3.232.625 4.706.854 1.474 2.248 2.466 3.784 2.892 1.535.395 3.214.225 4.721-.625zm-14.849-57.348c-.683-.879-.541-2.126.341-2.807.854-.68 2.134-.539 2.816.34.171.227.37.454.541.624.769.738 1.679 1.305 2.731 1.39 1.081.113 2.389-.284 3.896-1.475.398-.34.825-.68 1.223-1.077l.028-.057c1.963-1.842 4.125-2.863 6.229-3.26 2.503-.425 4.893 0 6.798.992.996.51 1.365 1.729.853 2.693-.512.992-1.707 1.361-2.702.85-1.166-.624-2.674-.878-4.238-.595-1.394.255-2.844.936-4.181 2.211-.512.539-1.024.992-1.536 1.361-2.418 1.899-4.694 2.523-6.742 2.324-2.077-.17-3.84-1.19-5.177-2.522-.31-.34-.623-.652-.88-.992z"/><path id="_x32_" d="m65.707 24.372c-1.109 0-1.991-.907-1.991-2.013s.882-1.984 1.991-1.984h9.017c.342-.992.882-1.842 1.594-2.551 1.166-1.163 2.758-1.899 4.551-1.899 1.792 0 3.385.737 4.579 1.899 1.167 1.162 1.878 2.778 1.878 4.536 0 1.786-.711 3.401-1.878 4.563-1.194 1.163-2.787 1.872-4.579 1.872-1.793 0-3.385-.708-4.551-1.872-.712-.708-1.252-1.587-1.594-2.551zm28.73 62.082c1.109 0 2.02-.907 2.02-2.013s-.91-1.984-2.02-1.984-1.991.879-1.991 1.984.881 2.013 1.991 2.013zm0 3.656c1.563 0 2.986-.623 4.039-1.672 1.024-1.021 1.649-2.438 1.649-3.997s-.625-2.977-1.649-3.997c-1.053-1.021-2.476-1.644-4.039-1.644-1.565 0-2.987.623-4.011 1.644s-1.649 2.438-1.649 3.997.625 2.977 1.649 3.997c1.023 1.049 2.445 1.672 4.011 1.672zm-30.209-10.147c-1.109 0-2.02-.907-2.02-2.013s.911-1.984 2.02-1.984h15.815c.342 0 .626.057.91.198l5.86 2.324c.228-.283.512-.595.768-.878 1.764-1.729 4.181-2.835 6.855-2.835 2.673 0 5.12 1.105 6.854 2.835 1.764 1.757 2.845 4.166 2.845 6.831s-1.081 5.103-2.845 6.831c-1.734 1.758-4.182 2.835-6.854 2.835-2.675 0-5.092-1.077-6.855-2.835-1.735-1.729-2.815-4.166-2.815-6.831 0-.794.085-1.587.284-2.353l-5.376-2.126h-15.446zm0 25.03c-1.109 0-2.02-.878-2.02-1.983s.911-2.013 2.02-2.013h11.975c.313-.964.854-1.843 1.564-2.552 1.166-1.162 2.788-1.871 4.58-1.871 1.763 0 3.385.709 4.551 1.871s1.906 2.778 1.906 4.564c0 1.785-.74 3.373-1.906 4.535s-2.788 1.899-4.551 1.899c-1.792 0-3.414-.737-4.58-1.899-.711-.709-1.252-1.56-1.564-2.552h-11.975zm19.826-3.713c-.426-.425-1.053-.709-1.706-.709-.683 0-1.31.284-1.735.709-.455.453-.712 1.049-.712 1.729s.257 1.275.712 1.729c.426.426 1.053.709 1.735.709.653 0 1.28-.283 1.706-.709.456-.453.712-1.049.712-1.729s-.256-1.276-.712-1.729zm10.383-63.727c1.109 0 2.02.879 2.02 1.985s-.91 2.013-2.02 2.013-1.991-.907-1.991-2.013.881-1.985 1.991-1.985zm10.552 22.282c1.109 0 2.02.878 2.02 1.984s-.91 2.013-2.02 2.013-1.991-.907-1.991-2.013.882-1.984 1.991-1.984zm-40.761 3.997c-1.109 0-2.02-.907-2.02-2.013s.911-1.984 2.02-1.984h31.29c.397-1.872 1.336-3.544 2.616-4.848 1.764-1.729 4.182-2.834 6.855-2.834 2.702 0 5.12 1.105 6.855 2.834 1.764 1.758 2.845 4.167 2.845 6.832s-1.081 5.103-2.845 6.832c-1.735 1.758-4.153 2.835-6.855 2.835-2.674 0-5.092-1.077-6.855-2.835-1.28-1.304-2.219-2.948-2.616-4.819zm36.751 2.013c1.024 1.021 2.446 1.645 4.011 1.645 1.593 0 3.016-.624 4.04-1.645 1.023-1.048 1.648-2.466 1.648-4.025s-.625-2.976-1.648-3.997c-1.024-1.021-2.447-1.644-4.04-1.644-1.564 0-2.986.624-4.011 1.644-2.219 2.211-2.219 5.811 0 8.022zm-36.751-17.803c-1.109 0-2.02-.907-2.02-2.013 0-1.105.911-1.984 2.02-1.984h15.446l5.376-2.126c-.199-.766-.284-1.559-.284-2.381 0-2.665 1.08-5.074 2.815-6.832 1.764-1.729 4.181-2.806 6.855-2.806 2.673 0 5.12 1.077 6.854 2.806 1.764 1.758 2.845 4.167 2.845 6.832s-1.081 5.103-2.845 6.832c-1.734 1.757-4.182 2.835-6.854 2.835-2.675 0-5.092-1.078-6.855-2.835-.256-.283-.54-.567-.768-.879l-5.86 2.325c-.284.142-.568.227-.91.227h-15.815zm34.248-12.501c-1.053-1.021-2.476-1.644-4.039-1.644-1.565 0-2.987.624-4.011 1.644-1.024 1.021-1.649 2.438-1.649 3.997s.625 2.977 1.649 4.025c1.023 1.021 2.445 1.644 4.011 1.644 1.563 0 2.986-.624 4.039-1.644 1.024-1.049 1.649-2.466 1.649-4.025s-.625-2.976-1.649-3.997zm-15.872-14.911c-.456-.425-1.053-.709-1.735-.709s-1.28.284-1.734.709c-.428.453-.712 1.048-.712 1.729 0 .68.284 1.275.712 1.729.454.425 1.052.708 1.734.708s1.279-.283 1.735-.708c.426-.454.71-1.049.71-1.729-.001-.68-.285-1.276-.71-1.729z"/><path id="_x31_" d="m62.208 10.113v100.578c0 6.521-4.153 12.502-10.866 13.238-1.821.199-3.698-.028-5.433-.651-3.357-1.247-6.201-4.082-7.197-8.533-.285-1.276-1.735-1.928-2.901-1.305-3.243 1.531-6.542 2.013-9.529 1.616-2.731-.34-5.234-1.474-7.168-3.175s-3.299-4.025-3.868-6.832c-.569-2.919-.256-6.35 1.251-10.205.398-1.021-.113-2.183-1.166-2.58-.313-.113-.625-.142-.939-.113-2.446.284-4.579-.736-6.144-2.438-1.053-1.162-1.849-2.665-2.304-4.28-.456-1.616-.569-3.373-.256-5.046.512-2.692 2.19-5.244 5.348-6.775 1.593-.766 1.479-3.005-.114-3.657-2.446-1.105-4.295-3.09-5.49-5.471-1.081-2.239-1.593-4.819-1.365-7.371.199-2.522 1.081-4.989 2.731-7.03 1.735-2.126 4.352-3.827 7.936-4.649 1.28-.312 1.905-1.701 1.336-2.834-1.081-2.211-1.621-4.763-1.564-7.286.058-2.268.598-4.479 1.65-6.406 1.023-1.871 2.588-3.458 4.665-4.507 1.821-.907 4.068-1.389 6.742-1.333 1.109.028 2.02-.851 2.048-1.956 0-.113 0-.255-.028-.396-.256-1.758 0-3.544.683-5.16.541-1.247 1.337-2.353 2.361-3.203 1.023-.822 2.275-1.417 3.726-1.644 1.764-.284 3.868 0 6.257 1.021 1.024.425 2.219-.057 2.646-1.077 1.422-3.09 3.641-5.046 5.974-5.982 1.536-.624 3.129-.793 4.608-.595 3.298.424 6.086 2.663 6.37 6.037zm1.878 109.31c1.28 2.551 3.071 4.535 5.177 5.953 2.104 1.417 4.494 2.268 6.94 2.522 2.446.283 4.949-.028 7.254-.879 3.953-1.445 7.367-4.507 9.073-9.127 3.3 1.19 6.599 1.53 9.699 1.134 3.557-.482 6.8-1.928 9.331-4.168 2.56-2.268 4.38-5.357 5.12-9.043.568-2.892.454-6.18-.541-9.751 2.589-.396 4.836-1.759 6.571-3.657 1.479-1.645 2.588-3.686 3.214-5.896.598-2.183.739-4.563.313-6.86-.57-2.919-2.049-5.67-4.637-7.796 1.934-1.502 3.47-3.43 4.551-5.612 1.422-2.892 2.048-6.208 1.792-9.44-.284-3.288-1.451-6.52-3.612-9.213-1.878-2.324-4.494-4.224-7.907-5.414.767-2.211 1.138-4.592 1.081-6.974-.086-2.863-.769-5.726-2.162-8.221-1.395-2.551-3.528-4.734-6.372-6.151-1.849-.907-4.011-1.502-6.457-1.701-.028-1.787-.398-3.544-1.109-5.131-.768-1.814-1.962-3.458-3.499-4.706-1.535-1.275-3.441-2.183-5.632-2.523-2.02-.312-4.267-.142-6.713.624-1.877-3.204-4.523-5.301-7.339-6.435-2.161-.85-4.437-1.134-6.571-.85-2.19.283-4.209 1.162-5.831 2.551-.625.51-1.166 1.134-1.678 1.814-1.792-2.353-4.637-3.94-7.794-4.365-2.133-.284-4.409 0-6.571.85-2.816 1.134-5.461 3.231-7.339 6.435-2.446-.766-4.693-.936-6.713-.624-2.19.34-4.096 1.248-5.66 2.523-1.536 1.247-2.703 2.892-3.499 4.706-.683 1.587-1.053 3.345-1.081 5.131-2.475.198-4.608.793-6.457 1.701-2.873 1.417-4.978 3.6-6.372 6.151-1.394 2.495-2.077 5.358-2.162 8.221-.057 2.381.313 4.763 1.081 6.974-3.414 1.19-6.03 3.09-7.908 5.414-2.19 2.694-3.356 5.925-3.612 9.213-.256 3.232.37 6.548 1.792 9.44 1.081 2.183 2.617 4.11 4.551 5.612-2.617 2.126-4.096 4.877-4.637 7.796-.455 2.297-.313 4.678.313 6.86.626 2.211 1.735 4.252 3.214 5.896 1.735 1.898 3.982 3.261 6.571 3.657-.996 3.571-1.109 6.859-.541 9.751.74 3.686 2.56 6.775 5.12 9.043 2.532 2.24 5.774 3.686 9.33 4.168 3.072.396 6.4.057 9.7-1.134 1.707 4.62 5.12 7.682 9.074 9.127 2.304.851 4.807 1.162 7.254.879 5.548-.624 9.9-3.94 12.29-8.475zm2.133-109.31c.2-1.928.995-3.431 2.19-4.451 1.023-.85 2.333-1.417 3.755-1.587 1.479-.198 3.072-.028 4.579.595 2.646 1.049 4.922 3.402 6.002 6.01.455 1.021 1.621 1.474 2.646 1.049 2.39-1.021 4.495-1.304 6.258-1.021 1.451.227 2.703.822 3.727 1.644 1.024.85 1.821 1.956 2.361 3.203.683 1.616.938 3.402.683 5.16-.229 1.247.739 2.381 1.991 2.353 2.702-.057 4.949.425 6.77 1.333 2.076 1.049 3.641 2.636 4.665 4.507 1.052 1.928 1.593 4.139 1.649 6.406.058 2.523-.483 5.075-1.593 7.286-.512 1.304-.028 2.495 1.366 2.834 3.583.822 6.201 2.523 7.936 4.649 1.65 2.041 2.532 4.507 2.73 7.03.199 2.552-.285 5.131-1.365 7.371-1.195 2.381-3.043 4.366-5.519 5.471-.427.199-.825.539-1.024.992-.482.992-.085 2.183.911 2.665 3.186 1.531 4.836 4.083 5.376 6.775.313 1.673.198 3.43-.256 5.046-1.053 3.771-4.153 7.229-8.42 6.718h-.028c-.313-.028-.655 0-.968.113-1.023.397-1.535 1.56-1.138 2.58 1.508 3.855 1.821 7.286 1.224 10.205-.54 2.807-1.935 5.131-3.84 6.832-1.935 1.701-4.438 2.835-7.168 3.175-3.016.396-6.287-.085-9.558-1.616-1.138-.623-2.589.028-2.873 1.305-.996 4.451-3.841 7.286-7.197 8.533-1.734.623-3.612.851-5.433.651-1.82-.198-3.584-.821-5.148-1.87-3.072-2.041-5.291-5.84-5.291-11.368z"/></g></svg>